<svg id="Layer_1" data-name="Layer 1" xmlns="http://www.w3.org/2000/svg" viewBox="0 0 1152 503"><defs><style>.cls-1{fill:#fff;}.cls-1,.cls-2,.cls-3{stroke:#000;stroke-miterlimit:10;stroke-width:4px;}.cls-2{fill:#393;}</style></defs><title>C#dim</title><rect class="cls-1" x="72" y="71" width="72" height="358.7"/><rect class="cls-1" x="144" y="71" width="72" height="358.7"/><rect class="cls-2" x="216" y="71" width="72" height="358.7"/><rect class="cls-2" x="126" y="71" width="36" height="216"/><rect class="cls-1" x="288" y="71" width="72" height="358.7"/><rect class="cls-2" x="360" y="71" width="72" height="358.7"/><rect class="cls-1" x="432" y="71" width="72" height="358.7"/><rect class="cls-1" x="504" y="71" width="72" height="358.7"/><rect class="cls-3" x="198" y="71" width="36" height="216"/><rect class="cls-3" x="342" y="71" width="36" height="216"/><rect class="cls-3" x="414" y="71" width="36" height="216"/><rect class="cls-3" x="486" y="71" width="36" height="216"/><rect class="cls-1" x="576" y="71" width="72" height="358.7"/><rect class="cls-1" x="648" y="71" width="72" height="358.7"/><rect class="cls-1" x="720" y="71" width="72" height="358.7"/><rect class="cls-3" x="630" y="71" width="36" height="216"/><rect class="cls-1" x="792" y="71" width="72" height="358.7"/><rect class="cls-1" x="864" y="71" width="72" height="358.7"/><rect class="cls-1" x="936" y="71" width="72" height="358.7"/><rect class="cls-1" x="1008" y="71" width="72" height="358.7"/><rect class="cls-3" x="702" y="71" width="36" height="216"/><rect class="cls-3" x="846" y="71" width="36" height="216"/><rect class="cls-3" x="918" y="71" width="36" height="216"/><rect class="cls-3" x="990" y="71" width="36" height="216"/></svg>