<svg xmlns="http://www.w3.org/2000/svg" viewBox="0 0 120 120"><path d="M0 0v120h120V0zm77.82 114.7C75 115.26 74 113.5 74 112V96.57c0-5.24-1.8-8.66-3.8-10.4 12.54-1.4 25.68-6.17 25.68-27.74a21.68 21.68 0 0 0-5.78-15.09c.6-1.44 2.5-7.15-.55-14.9 0 0-4.75-1.47-15.44 5.76a53.43 53.43 0 0 0-28.17 0c-10.74-7.27-15.46-5.76-15.46-5.76-3.06 7.77-1.13 13.48-.54 14.9a21.68 21.68 0 0 0-5.8 15.11c0 21.54 13.17 26.37 25.62 27.77a12 12 0 0 0-3.58 7.52C43 95.2 34.84 97.67 29.83 89.08c0 0-3-5.4-8.63-5.8 0 0-5.48-.07-.38 3.42 0 0 3.7 1.7 6.25 8.23 0 0 3.3 10 18.94 6.63l.07 10.46c0 1.34-1 3.23-3.83 2.7C16.094 106.018.123 79.614 4.542 52.398s27.92-47.21 55.493-47.21 51.075 19.995 55.493 47.21-11.552 53.62-37.708 62.342zM45.7 96.22c.1.46-.38.93-1 1s-1.26-.15-1.34-.6.4-.93 1-1 1.26.16 1.34.6zM41.4 97c0 .46-.52.85-1.2.85S39 97.45 39 97s.52-.85 1.2-.86 1.2.35 1.2.86zm-4.6-.34c-.14.44-.76.65-1.4.46s-1-.7-.93-1.16.77-.65 1.4-.45 1.05.66.93 1.1zm-4.15-1.86a1.06 1.06 0 0 1-1.47-.24c-.5-.46-.64-1.1-.32-1.44s.93-.25 1.45.22.64 1.1.3 1.43zm-3.08-3.13c-.34.24-.93 0-1.25-.5s-.35-1.1 0-1.34.93 0 1.25.48.35 1.1 0 1.35zm-2.2-3.24c-.27.25-.8.13-1.16-.26a.86.86 0 0 1-.15-1.17c.27-.25.78-.13 1.15.27s.44.93.16 1.16zM25.1 85.9c-.12.28-.56.36-.93.17s-.65-.56-.52-.84a.69.69 0 0 1 .94-.18c.36.2.64.57.5.85z" fill="#fff"/></svg>