<svg xmlns="http://www.w3.org/2000/svg" viewBox="0 0 200 200" fill="#fff"><path d="M170.2 46.9c-1.4-3.9-3.7-7.5-6.7-10.4-2.9-3-6.4-5.3-10.4-6.7-3.2-1.2-7.9-2.7-16.7-3.1l-36.4-.5-36.4.5c-8.8.4-13.5 1.9-16.7 3.1-3.9 1.4-7.5 3.7-10.4 6.7-3 2.9-5.3 6.4-6.7 10.4-1.2 3.2-2.7 7.9-3.1 16.7l-.5 36.4.5 36.4c.4 8.8 1.9 13.5 3.1 16.7 1.4 3.9 3.7 7.5 6.7 10.4 2.9 3 6.4 5.3 10.4 6.7 3.2 1.2 7.9 2.7 16.7 3.1 9.5.4 12.3.5 36.4.5l36.4-.5c8.8-.4 13.5-1.9 16.7-3.1 7.8-3 14.1-9.2 17.1-17.1 1.2-3.2 2.7-7.9 3.1-16.7l.5-36.4-.5-36.4c-.4-8.7-1.9-13.5-3.1-16.7zm-24 53.1c0 25.5-20.7 46.2-46.2 46.2S53.8 125.5 53.8 100 74.5 53.8 100 53.8s46.2 20.7 46.2 46.2zm1.9-37.2c-6 0-10.8-4.8-10.8-10.8s4.8-10.8 10.8-10.8S158.9 46 158.9 52s-4.9 10.8-10.8 10.8z"/><circle transform="matrix(.7071 -.7071 .7071 .7071 -41.4185 100.0033)" cx="100" cy="100" r="30"/><path d="M0 0v200h200V0H0zm189.5 137.1c-.4 9.6-2 16.1-4.2 21.8-4.7 12.1-14.2 21.6-26.3 26.3-5.7 2.2-12.2 3.8-21.8 4.2l-37.2.6c-24.4 0-27.5-.1-37.1-.5s-16.1-2-21.8-4.2c-6-2.3-11.4-5.8-15.9-10.4-4.6-4.5-8.1-9.9-10.4-15.9-2.2-5.7-3.7-12.2-4.2-21.8L10 100l.5-37.1c.4-9.6 2-16.1 4.2-21.8 2.3-6 5.8-11.4 10.4-15.9C29.6 20.5 35 17 41 14.7c5.7-2.2 12.3-3.8 21.9-4.2S75.6 10 100 10l37.1.5c9.6.4 16.1 2 21.8 4.2 6 2.3 11.4 5.8 15.9 10.4 4.6 4.5 8.1 9.9 10.4 15.9 2.2 5.7 3.7 12.2 4.2 21.8l.6 37.2-.5 37.1z"/></svg>