<svg xmlns="http://www.w3.org/2000/svg" viewBox="0 0 200 200" fill="#fff"><path d="M49.93 34.73a15.5 15.5 0 1 0 15.54 15.54v-.07a15.52 15.52 0 0 0-15.54-15.47zM36.67 77.47h26.67v85.87H36.67zm94.53-2.1a28 28 0 0 0-25.27 13.86h-.33V77.47H80v85.86h26.67V120.9c0-11.23 2.26-22.07 16.13-22.07s13.87 12.77 13.87 22.77v41.73h26.66l-.13-47.06c0-23.14-5-40.9-32-40.9zM0 0v200h200V0zm190 177a13.34 13.34 0 0 1-13.33 13H23.33A13.34 13.34 0 0 1 10 177V23a13.13 13.13 0 0 1 13.33-13h153.4A13.13 13.13 0 0 1 190 23z"/></svg>