<svg id="Layer_1" data-name="Layer 1" xmlns="http://www.w3.org/2000/svg" viewBox="0 0 100 100">
  <defs>
    <style>
      .cls-1 {
        fill: #fff;
      }
    </style>
  </defs>
  <title>icon</title>
  <g>
    <path class="cls-1" d="M26.4,67.18a29.23,29.23,0,0,0,15.84,4.64c19.18,0,30-16.2,29.36-30.73a21.11,21.11,0,0,0,5.16-5.34,20.7,20.7,0,0,1-5.93,1.63,10.36,10.36,0,0,0,4.54-5.72,20.67,20.67,0,0,1-6.56,2.51,10.34,10.34,0,0,0-17.61,9.42A29.33,29.33,0,0,1,29.9,32.79a10.35,10.35,0,0,0,3.2,13.79,10.28,10.28,0,0,1-4.68-1.29,10.34,10.34,0,0,0,8.29,10.26,10.39,10.39,0,0,1-4.66.18,10.34,10.34,0,0,0,9.65,7.18A20.79,20.79,0,0,1,26.4,67.18Z"/>
    <path class="cls-1" d="M0,0V100H100V0ZM87.77,87.55H12.23V12H87.77Z"/>
  </g>
</svg>
